<?xml version="1.0" encoding="UTF-8"?>
<svg viewBox="0 0 374.65295 397.69366" xmlns="http://www.w3.org/2000/svg" xmlns:xlink="http://www.w3.org/1999/xlink">
 <defs>
  <filter id="m">
   <feGaussianBlur stdDeviation="2.20563"/>
  </filter>
  <filter id="l">
   <feGaussianBlur stdDeviation="1.485"/>
  </filter>
  <filter id="q" x="-.18616" y="-.13888" width="1.3723" height="1.2778">
   <feGaussianBlur stdDeviation="4.62729"/>
  </filter>
  <filter id="p" x="-.19667" y="-.05027" width="1.3933" height="1.1005">
   <feGaussianBlur stdDeviation="4.62729"/>
  </filter>
  <filter id="o" x="-.1923" y="-.04437" width="1.3846" height="1.0888">
   <feGaussianBlur stdDeviation="4.62729"/>
  </filter>
  <filter id="n" x="-.19158" y="-.3798" width="1.3832" height="1.7596">
   <feGaussianBlur stdDeviation="4.62729"/>
  </filter>
  <linearGradient id="a">
   <stop stop-color="#fff" offset="0"/>
   <stop stop-color="#fff" stop-opacity="0" offset="1"/>
  </linearGradient>
  <linearGradient id="k" x1="370.61" x2="369.48" y1="476.75" y2="690.75" gradientUnits="userSpaceOnUse">
   <stop stop-color="#f60" offset="0"/>
   <stop stop-color="#ff9026" offset="1"/>
  </linearGradient>
  <linearGradient id="i" x1="286.03" x2="283.9" y1="336.88" y2="690.88" gradientUnits="userSpaceOnUse">
   <stop stop-color="#000080" offset="0"/>
   <stop stop-color="#5b59d0" offset="1"/>
  </linearGradient>
  <linearGradient id="g" x1="201.45" x2="197.31" y1="407.32" y2="693.32" gradientUnits="userSpaceOnUse">
   <stop stop-color="#008000" offset="0"/>
   <stop stop-color="#4eb450" offset="1"/>
  </linearGradient>
  <linearGradient id="e" x1="109.87" x2="107.73" y1="548.18" y2="690.18" gradientUnits="userSpaceOnUse">
   <stop stop-color="#b4b400" offset="0"/>
   <stop stop-color="#ffff49" offset="1"/>
  </linearGradient>
  <linearGradient id="j" x1="376" x2="382" y1="461.36" y2="529.36" gradientUnits="userSpaceOnUse" xlink:href="#a"/>
  <linearGradient id="h" x1="278" x2="285" y1="338.36" y2="601.36" gradientUnits="userSpaceOnUse" xlink:href="#a"/>
  <linearGradient id="f" x1="207" x2="197" y1="402.36" y2="647.36" gradientUnits="userSpaceOnUse" xlink:href="#a"/>
  <linearGradient id="d" x1="121" x2="122" y1="524.36" y2="649.36" gradientUnits="userSpaceOnUse" xlink:href="#a"/>
  <linearGradient id="c" x1="265.62" x2="371.78" y1="523.08" y2="707.08" gradientUnits="userSpaceOnUse" xlink:href="#a"/>
  <linearGradient id="b" x1="285" x2="337" y1="474.36" y2="570.36" gradientUnits="userSpaceOnUse" xlink:href="#a"/>
 </defs>
 <g transform="translate(-51.847 -324.68)">
  <g transform="translate(0 7.9815)" stroke="#aa6a1e" stroke-width=".62825">
   <path d="m71.18 548.63h70.238v141.1h-70.238z" fill="url(#e)"/>
   <path d="m83.188 553.91a6.7089 6.7089 0 0 0 -6.7188 6.7188v57.25a6.7089 6.7089 0 0 0 5 6.5c15.531 4.0974 31.358 7.3453 47.062 9.4375a6.7089 6.7089 0 0 0 7.5938 -6.6562v-66.531a6.7089 6.7089 0 0 0 -6.7188 -6.7188h-46.219z" fill="url(#d)" filter="url(#q)" opacity=".73128"/>
  </g>
  <g transform="translate(0 7.9814)" stroke="#aa6a1e" stroke-width=".88742">
   <path d="m159.89 407.03h69.979v282.58h-69.979z" fill="url(#g)"/>
   <path d="m170.91 413.78a4.2431 4.2431 0 0 0 -4.25 4.25v212.41a4.2431 4.2431 0 0 0 4.4062 4.25c17.473-0.63395 34.13-3.5159 49.312-9.3125a4.2431 4.2431 0 0 0 2.75 -3.9688v-203.38a4.2431 4.2431 0 0 0 -4.25 -4.25h-47.969z" fill="url(#f)" filter="url(#p)" opacity=".73128"/>
  </g>
  <g transform="translate(0 7.9814)" stroke="#aa6a1e" stroke-width=".99159">
   <path d="m248.53 336.22h69.875v353.34h-69.875z" fill="url(#i)"/>
   <path d="m263.53 342.28a8.9452 8.9452 0 0 0 -8.9375 8.9375v232.41a8.9452 8.9452 0 0 0 16.219 5.1875c2.4088-3.3859 4.7836-7.0219 7-11 10.008-17.963 20.672-31.409 31.656-41.562a8.9452 8.9452 0 0 0 2.875 -6.5625v-178.47a8.9452 8.9452 0 0 0 -8.9375 -8.9375h-39.875z" fill="url(#h)" filter="url(#o)" opacity=".73128"/>
  </g>
  <g transform="translate(0 7.9814)" stroke="#aa6a1e" stroke-width=".76899">
   <path d="m337 477.84h70.097v211.83h-70.097z" fill="url(#k)"/>
   <path d="m352 483.91a8.9452 8.9452 0 0 0 -8.9375 8.9375v10.906a8.9452 8.9452 0 0 0 10.719 8.7812c12.45-2.5218 24.718-1.9583 36.531 0.4375a8.9452 8.9452 0 0 0 10.719 -8.7812v-11.344a8.9452 8.9452 0 0 0 -8.9375 -8.9375h-40.094z" fill="url(#j)" filter="url(#n)" opacity=".73128"/>
  </g>
  <path d="m424.73 697.56h-371.11v-371.11" fill="none" stroke="#000" stroke-width="3.5433"/>
 </g>
 <g transform="translate(-51.847 -324.68)">
  <path d="m323.12 504.38v19.25c-5.4634 0.54036-10.685 1.5479-15.688 3.0312-7.8675 2.3333-14.067 5.1674-18.625 8.5312-6.0769 4.3408-10.879 9.8099-14.406 16.375s-5.2813 13.702-5.2812 21.406c-2e-5 8.4644 2.1198 16.188 6.4062 23.188s10.605 12.477 18.906 16.438c6.0516 2.8874 15.637 6.1739 28.688 9.8438v55.75c-6.4819-1.4946-11.941-4.0553-16.344-7.7188-7.4334-6.1854-11.935-15.076-13.562-26.688l-29 4.5312c3.2555 18.339 10.788 32.199 22.562 41.531 8.9949 7.1296 21.114 11.536 36.344 13.219v19.312h25.781v-19.062c9.3074-0.94007 17.874-3.1295 25.688-6.5625 10.743-4.7204 18.959-11.404 24.656-20.031s8.5624-17.827 8.5625-27.594c-1.5e-4 -9.9834-2.334-18.334-7-25.062s-11.12-11.848-19.312-15.375c-6.6774-2.8743-17.592-6.4166-32.594-10.625v-49.219c4.8875 1.2342 9.027 3.1717 12.406 5.875 6.2396 4.9919 10.01 11.946 11.312 20.844l28.656-3.9062c-1.8449-11.177-5.2107-20.107-10.094-26.781s-12.433-11.968-22.688-15.875c-5.9675-2.2732-12.5-3.8666-19.594-4.8125v-19.812h-25.781zm0 43.562v43c-5.4285-1.5456-9.1943-2.6899-10.875-3.3125-5.1003-2.0617-8.8314-4.6967-11.219-7.8438-2.3874-3.0383-3.5938-6.4518-3.5938-10.25-4e-5 -5.9683 2.8736-11.176 8.625-15.625 3.9092-3.024 9.5933-5.0053 17.062-5.9688zm25.781 81.344c10.286 2.8595 17.044 5.2941 20.156 7.3125 5.7512 3.7981 8.6249 9.0056 8.625 15.625-1.2e-4 7.3792-3.2704 13.832-9.7812 19.312-4.6002 3.8718-10.937 6.3641-19 7.5v-49.75z" fill="#d40000"/>
  <path d="m299.03 606.88c-0.84946 3.4e-4 -1.7118 0.0243-2.5625 0.0312 0.19057 0.0938 0.36905 0.18895 0.5625 0.28125 5.4263 2.5891 14.829 5.8444 27.719 9.4688a6.0006 6.0006 0 0 1 4.375 5.7812v55.75a6.0006 6.0006 0 0 1 -7.3438 5.8438c-7.2252-1.666-13.623-4.5934-18.844-8.9375-7.2654-6.0456-11.948-14.502-14.375-24.5l-16.938 2.6563c3.5044 14.058 9.695 24.63 18.875 31.906 7.882 6.2475 18.842 10.342 33.281 11.938a6.0006 6.0006 0 0 1 0.96875 0.1875c17.428-3.302 37.003-6.9656 55.688-10.438 5.7634-3.6902 10.318-8.1456 13.812-13.438 4.9059-7.4292 7.3306-15.017 7.5312-23.188-4.0602-2.8099-8.3188-7.2674-12.781-13.844-15.438-22.75-51.993-29.515-89.969-29.5zm49.438 16.406a6.0006 6.0006 0 0 1 2.0312 0.21875c10.479 2.9133 17.221 5.0846 21.812 8.0625a6.0006 6.0006 0 0 1 0.0625 0.0312c7.0887 4.6814 11.312 12.269 11.312 20.625-1.5e-4 9.1518-4.3772 17.569-11.906 23.906-5.7065 4.8029-13.198 7.5993-22.031 8.8438a6.0006 6.0006 0 0 1 -6.8438 -5.9375v-49.75a6.0006 6.0006 0 0 1 5.5625 -6z" fill="url(#c)" filter="url(#m)" opacity=".62555"/>
  <path d="m329.12 510.38v13.25a6.0006 6.0006 0 0 1 -5.4062 5.9688c-5.1091 0.50532-9.9412 1.4422-14.562 2.8125-7.4215 2.201-13.02 4.8176-16.781 7.5938a6.0006 6.0006 0 0 1 -0.0625 0.0625c-5.3539 3.8244-9.5154 8.5553-12.625 14.344-3.0616 5.6994-4.5625 11.769-4.5625 18.562-2e-5 6.6821 1.4633 12.597 4.4375 18.125 4.6254-3.5614 9.3231-7.4962 14.125-11.844-1.4542-3.0177-2.25-6.3303-2.25-9.7188-5e-5 -7.8942 4.1903-15.131 10.969-20.375 5.1324-3.9702 11.816-6.1087 19.938-7.1562a6.0006 6.0006 0 0 1 0.625 -0.0625 6.0006 6.0006 0 0 1 3.75 1.1875c3.7804-4.9472 7.5533-10.19 11.281-15.75 1.618-2.4132 3.2559-4.5972 4.9062-6.5625v-10.438h-13.781z" fill="url(#b)" filter="url(#l)" opacity=".30837"/>
 </g>
</svg>
